<svg width="32" height="32" viewBox="0 0 32 32" fill="none" xmlns="http://www.w3.org/2000/svg">
<rect width="32" height="32" rx="4" fill="#FAFBFF"/>
<path d="M15.0828 8.7843H9.57358C9.15611 8.7843 8.75574 8.95014 8.46055 9.24534C8.16535 9.54053 7.99951 9.9409 7.99951 10.3584V21.3769C7.99951 21.7943 8.16535 22.1947 8.46055 22.4899C8.75574 22.7851 9.15611 22.9509 9.57358 22.9509H20.5921C21.0095 22.9509 21.4099 22.7851 21.7051 22.4899C22.0003 22.1947 22.1661 21.7943 22.1661 21.3769V15.8676" stroke="#3758F9" stroke-width="1.6" stroke-linecap="round" stroke-linejoin="round"/>
<path d="M20.1003 8.48912C20.4134 8.17602 20.838 8.00012 21.2808 8.00012C21.7236 8.00012 22.1483 8.17602 22.4614 8.48912C22.7745 8.80222 22.9504 9.22688 22.9504 9.66968C22.9504 10.1125 22.7745 10.5371 22.4614 10.8502L15.3678 17.9446C15.181 18.1313 14.9501 18.268 14.6965 18.342L12.4353 19.0031C12.3676 19.0229 12.2958 19.0241 12.2275 19.0066C12.1592 18.989 12.0968 18.9535 12.0469 18.9036C11.997 18.8537 11.9615 18.7913 11.944 18.723C11.9264 18.6547 11.9276 18.5829 11.9474 18.5152L12.6085 16.254C12.6829 16.0006 12.8198 15.77 13.0067 15.5835L20.1003 8.48912Z" stroke="#3758F9" stroke-width="1.6" stroke-linecap="round" stroke-linejoin="round"/>
</svg>
