<svg width="44" height="44" viewBox="0 0 44 44" fill="none" xmlns="http://www.w3.org/2000/svg">
<path d="M10.9997 36.6666C9.99134 36.6666 9.12845 36.3079 8.41101 35.5905C7.69356 34.873 7.33423 34.0095 7.33301 33V29.3333C7.33301 28.8138 7.50901 28.3787 7.86101 28.028C8.21301 27.6772 8.64812 27.5012 9.16634 27.5C9.68456 27.4987 10.1203 27.6747 10.4735 28.028C10.8267 28.3812 11.0021 28.8163 10.9997 29.3333V33H32.9997V29.3333C32.9997 28.8138 33.1757 28.3787 33.5277 28.028C33.8797 27.6772 34.3148 27.5012 34.833 27.5C35.3512 27.4987 35.787 27.6747 36.1402 28.028C36.4934 28.3812 36.6688 28.8163 36.6663 29.3333V33C36.6663 34.0083 36.3076 34.8718 35.5902 35.5905C34.8727 36.3091 34.0092 36.6678 32.9997 36.6666H10.9997ZM20.1663 14.3916L16.7288 17.8291C16.3622 18.1958 15.9271 18.3718 15.4235 18.3571C14.92 18.3425 14.4842 18.1512 14.1163 17.7833C13.7802 17.4166 13.6042 16.9888 13.5883 16.5C13.5725 16.0111 13.7485 15.5833 14.1163 15.2166L20.7163 8.61662C20.8997 8.43329 21.0983 8.30373 21.3122 8.22795C21.5261 8.15218 21.7552 8.11368 21.9997 8.11245C22.2441 8.11123 22.4733 8.14973 22.6872 8.22795C22.9011 8.30618 23.0997 8.43573 23.283 8.61662L29.883 15.2166C30.2497 15.5833 30.4257 16.0111 30.411 16.5C30.3963 16.9888 30.2203 17.4166 29.883 17.7833C29.5163 18.15 29.0812 18.3412 28.5777 18.3571C28.0741 18.373 27.6384 18.197 27.2705 17.8291L23.833 14.3916V27.5C23.833 28.0194 23.657 28.4551 23.305 28.8071C22.953 29.1591 22.5179 29.3345 21.9997 29.3333C21.4815 29.3321 21.0463 29.1561 20.6943 28.8053C20.3423 28.4545 20.1663 28.0194 20.1663 27.5V14.3916Z" fill="#8B8B8B"/>
</svg>
